<svg xmlns="http://www.w3.org/2000/svg" xmlns:xlink="http://www.w3.org/1999/xlink" version="1.1" width="256" height="256" viewBox="0 0 256 256" xml:space="preserve">
<desc>Created with Fabric.js 1.7.22</desc>
<defs>
</defs>
<g transform="translate(128 128) scale(0.72 0.72)" style="">
	<g style="stroke: none; stroke-width: 0; stroke-dasharray: none; stroke-linecap: butt; stroke-linejoin: miter; stroke-miterlimit: 10; fill: none; fill-rule: nonzero; opacity: 1;" transform="translate(-175.05 -175.05000000000004) scale(3.89 3.89)" >
	<path d="M 61.06 90 c -0.618 0 -1.2 -0.318 -1.53 -0.853 L 45.448 66.357 c -0.236 -0.383 -0.321 -0.84 -0.237 -1.281 L 48.9 45.601 l -19.476 3.688 c -0.442 0.084 -0.898 0 -1.281 -0.237 L 5.354 34.97 c -0.605 -0.374 -0.933 -1.068 -0.838 -1.772 c 0.095 -0.704 0.596 -1.287 1.278 -1.486 l 77.4 -22.639 c 0.63 -0.185 1.314 -0.011 1.778 0.455 c 0.465 0.465 0.64 1.147 0.455 1.778 l -22.639 77.4 c -0.2 0.682 -0.782 1.183 -1.486 1.279 C 61.222 89.995 61.141 90 61.06 90 z" style="stroke: none; stroke-width: 1; stroke-dasharray: none; stroke-linecap: butt; stroke-linejoin: miter; stroke-miterlimit: 10; fill: rgb(75,209,193); fill-rule: nonzero; opacity: 1;" transform=" matrix(1 0 0 1 0 0) " stroke-linecap="round" />
	<path d="M 8.325 87.974 c -0.461 0 -0.921 -0.176 -1.273 -0.527 c -0.703 -0.703 -0.703 -1.842 0 -2.545 L 33.58 58.374 c 0.702 -0.703 1.842 -0.703 2.545 0 s 0.703 1.842 0 2.545 L 9.598 87.447 C 9.247 87.798 8.786 87.974 8.325 87.974 z" style="stroke: none; stroke-width: 1; stroke-dasharray: none; stroke-linecap: butt; stroke-linejoin: miter; stroke-miterlimit: 10; fill: rgb(75,209,193); fill-rule: nonzero; opacity: 1;" transform=" matrix(1 0 0 1 0 0) " stroke-linecap="round" />
	<path d="M 27.482 89.716 c -0.461 0 -0.921 -0.176 -1.273 -0.527 c -0.703 -0.703 -0.703 -1.842 0 -2.545 l 9.984 -9.984 c 0.702 -0.703 1.842 -0.703 2.545 0 c 0.703 0.703 0.703 1.842 0 2.545 l -9.984 9.984 C 28.403 89.54 27.942 89.716 27.482 89.716 z" style="stroke: none; stroke-width: 1; stroke-dasharray: none; stroke-linecap: butt; stroke-linejoin: miter; stroke-miterlimit: 10; fill: rgb(75,209,193); fill-rule: nonzero; opacity: 1;" transform=" matrix(1 0 0 1 0 0) " stroke-linecap="round" />
	<path d="M 6.584 68.818 c -0.461 0 -0.922 -0.176 -1.273 -0.527 c -0.703 -0.703 -0.703 -1.842 0 -2.545 l 9.984 -9.984 c 0.702 -0.703 1.842 -0.703 2.545 0 s 0.703 1.842 0 2.545 l -9.984 9.984 C 7.505 68.643 7.044 68.818 6.584 68.818 z" style="stroke: none; stroke-width: 1; stroke-dasharray: none; stroke-linecap: butt; stroke-linejoin: miter; stroke-miterlimit: 10; fill: rgb(75,209,193); fill-rule: nonzero; opacity: 1;" transform=" matrix(1 0 0 1 0 0) " stroke-linecap="round" />
	<path d="M 61.06 81 c -0.618 0 -1.2 -0.318 -1.53 -0.853 L 45.448 57.357 c -0.236 -0.383 -0.321 -0.84 -0.237 -1.281 L 48.9 36.601 l -19.476 3.688 c -0.442 0.084 -0.898 0 -1.281 -0.237 L 5.354 25.97 c -0.605 -0.374 -0.933 -1.068 -0.838 -1.772 c 0.095 -0.704 0.596 -1.287 1.278 -1.486 l 77.4 -22.639 c 0.63 -0.185 1.314 -0.011 1.778 0.455 c 0.465 0.465 0.64 1.147 0.455 1.778 l -22.639 77.4 c -0.2 0.682 -0.782 1.183 -1.486 1.279 C 61.222 80.995 61.141 81 61.06 81 z M 48.878 56.059 l 11.59 18.757 L 81.049 4.451 L 10.684 25.032 l 18.757 11.591 l 21.384 -4.05 c 0.584 -0.109 1.187 0.074 1.608 0.496 c 0.421 0.421 0.606 1.023 0.496 1.608 L 48.878 56.059 z" style="stroke: none; stroke-width: 1; stroke-dasharray: none; stroke-linecap: butt; stroke-linejoin: miter; stroke-miterlimit: 10; fill: rgb(0,0,0); fill-rule: nonzero; opacity: 1;" transform=" matrix(1 0 0 1 0 0) " stroke-linecap="round" />
	<path d="M 8.325 78.974 c -0.461 0 -0.921 -0.176 -1.273 -0.527 c -0.703 -0.703 -0.703 -1.842 0 -2.545 L 33.58 49.374 c 0.702 -0.703 1.842 -0.703 2.545 0 c 0.703 0.703 0.703 1.842 0 2.545 L 9.598 78.447 C 9.247 78.798 8.786 78.974 8.325 78.974 z" style="stroke: none; stroke-width: 1; stroke-dasharray: none; stroke-linecap: butt; stroke-linejoin: miter; stroke-miterlimit: 10; fill: rgb(0,0,0); fill-rule: nonzero; opacity: 1;" transform=" matrix(1 0 0 1 0 0) " stroke-linecap="round" />
	<path d="M 27.482 80.716 c -0.461 0 -0.921 -0.176 -1.273 -0.527 c -0.703 -0.703 -0.703 -1.842 0 -2.545 l 9.984 -9.984 c 0.702 -0.703 1.842 -0.703 2.545 0 c 0.703 0.703 0.703 1.842 0 2.545 l -9.984 9.984 C 28.403 80.54 27.942 80.716 27.482 80.716 z" style="stroke: none; stroke-width: 1; stroke-dasharray: none; stroke-linecap: butt; stroke-linejoin: miter; stroke-miterlimit: 10; fill: rgb(0,0,0); fill-rule: nonzero; opacity: 1;" transform=" matrix(1 0 0 1 0 0) " stroke-linecap="round" />
	<path d="M 6.584 59.818 c -0.461 0 -0.922 -0.176 -1.273 -0.527 c -0.703 -0.703 -0.703 -1.842 0 -2.545 l 9.984 -9.984 c 0.702 -0.703 1.842 -0.703 2.545 0 s 0.703 1.842 0 2.545 l -9.984 9.984 C 7.505 59.643 7.044 59.818 6.584 59.818 z" style="stroke: none; stroke-width: 1; stroke-dasharray: none; stroke-linecap: butt; stroke-linejoin: miter; stroke-miterlimit: 10; fill: rgb(0,0,0); fill-rule: nonzero; opacity: 1;" transform=" matrix(1 0 0 1 0 0) " stroke-linecap="round" />
</g>
</g>
</svg>