<svg width="40" height="40" viewBox="0 0 40 40" fill="none" xmlns="http://www.w3.org/2000/svg">
<path fill-rule="evenodd" clip-rule="evenodd" d="M17.0449 14C17.1082 13.3576 17.2485 12.7369 17.5262 12.2319C17.7261 11.8684 17.9919 11.5754 18.3545 11.367C18.7197 11.1572 19.2409 11 20 11C20.7591 11 21.2803 11.1572 21.6455 11.367C22.0081 11.5754 22.2739 11.8684 22.4738 12.2319C22.7515 12.7369 22.8918 13.3576 22.9551 14H17.0449ZM15.0367 14C15.1056 13.1309 15.2937 12.141 15.7738 11.2681C16.1239 10.6316 16.6331 10.0496 17.358 9.63299C18.0803 9.21784 18.9591 9 20 9C21.0409 9 21.9197 9.21784 22.642 9.63299C23.3669 10.0496 23.8761 10.6316 24.2262 11.2681C24.7063 12.141 24.8944 13.1309 24.9633 14H27H30V16H27.9356L26.9978 30.0665L26.9356 31H26H14H13.0644L13.0022 30.0665L12.0644 16H10V14H13H15.0367ZM14.9356 29L14.0689 16H25.9311L25.0644 29H14.9356Z" fill="#D20F27"/>
</svg>
